<svg width="145" height="31" viewBox="0 0 145 31" fill="none" xmlns="http://www.w3.org/2000/svg">
<path d="M21.88 7.84V2.52H0.72V30H6.64V19.12H20.44V13.8H6.64V7.84H21.88ZM27.8316 6.48C29.5516 6.48 30.9516 5.04 30.9516 3.28C30.9516 1.64 29.5516 0.159998 27.8316 0.159998C26.0316 0.159998 24.6316 1.64 24.6316 3.28C24.6316 5.04 26.0316 6.48 27.8316 6.48ZM24.8716 30H30.7116V9.32H24.8716V30ZM45.69 24.88C45.29 25.28 44.49 25.56 43.69 25.56C42.61 25.56 41.73 24.6 41.73 23.24V14.04H46.21V9.32H41.73V3.64H36.13V9.32H33.29V14.04H36.13V24.16C36.13 27.88 38.69 30.48 42.33 30.48C44.01 30.48 45.89 29.76 47.09 28.68L45.69 24.88ZM63.4275 30.48C67.5875 30.48 71.4275 28.68 74.1075 25.88L69.8275 22.04C68.2275 23.88 65.9475 25.12 63.4275 25.12C58.8275 25.12 54.9075 21.04 54.9075 16.24C54.9075 11.48 58.8275 7.4 63.4275 7.4C65.9475 7.4 68.2275 8.64 69.8275 10.48L74.1075 6.64C71.4275 3.8 67.5875 2.04 63.4275 2.04C55.5475 2.04 48.8275 8.52 48.8275 16.24C48.8275 23.96 55.5475 30.48 63.4275 30.48ZM76.5991 30H82.4391V2.04H76.5991V30ZM95.7766 8.84C92.8966 8.84 90.0566 9.64 87.1366 11.12L89.0966 15C90.7366 14.16 92.5366 13.52 94.4566 13.52C97.8566 13.52 99.2166 15.44 99.2166 17.64V18.04C97.4566 17.36 95.6166 17 93.9366 17C89.1366 17 85.3366 19.8 85.3366 23.88C85.3366 27.84 88.7366 30.48 93.1366 30.48C95.3766 30.48 97.7366 29.6 99.2166 27.92V30H104.857V17.64C104.857 12.24 101.177 8.84 95.7766 8.84ZM94.4566 26.44C92.4566 26.44 90.9766 25.4 90.9766 23.72C90.9766 22.04 92.6566 20.8 94.7766 20.8C96.3766 20.8 97.8966 21.08 99.2166 21.56V23.48C98.8166 25.4 96.6966 26.44 94.4566 26.44ZM116.539 30.48C121.619 30.48 124.939 27.88 124.939 23.8C124.939 19.28 120.979 18.08 117.419 17.16C114.619 16.4 113.779 16.08 113.779 14.96C113.779 14.24 114.779 13.72 116.219 13.72C117.979 13.72 120.139 14.4 122.019 15.56L124.379 11.4C122.099 9.88 119.179 8.84 116.219 8.84C111.339 8.84 108.099 11.64 108.139 15.56C108.179 19.64 111.459 20.8 115.699 21.84C117.819 22.4 119.339 22.8 119.339 24.08C119.339 25 118.219 25.64 116.659 25.64C113.899 25.64 111.579 24.64 109.739 23.32L107.219 27.36C109.699 29.36 113.219 30.48 116.539 30.48ZM135.617 30.48C140.697 30.48 144.017 27.88 144.017 23.8C144.017 19.28 140.057 18.08 136.497 17.16C133.697 16.4 132.857 16.08 132.857 14.96C132.857 14.24 133.857 13.72 135.297 13.72C137.057 13.72 139.217 14.4 141.097 15.56L143.457 11.4C141.177 9.88 138.257 8.84 135.297 8.84C130.417 8.84 127.177 11.64 127.217 15.56C127.257 19.64 130.537 20.8 134.777 21.84C136.897 22.4 138.417 22.8 138.417 24.08C138.417 25 137.297 25.64 135.737 25.64C132.977 25.64 130.657 24.64 128.817 23.32L126.297 27.36C128.777 29.36 132.297 30.48 135.617 30.48Z" fill="#2C5FF6"/>
</svg>
